<svg aria-hidden="true" style="position: absolute; width: 0; height: 0; overflow: hidden;" version="1.1" xmlns="http://www.w3.org/2000/svg" xmlns:xlink="http://www.w3.org/1999/xlink">
<defs>
<symbol id="icon-medecine" viewBox="0 0 32 32">
<path fill="#00a3a4" style="fill: var(--color1, #00a3a4)" d="M15.392 24.804c0.35 0.254 0.824 0.254 1.174 0 0 0 3.007-2.178 5.412-5.403 1.665-2.233 3.021-4.961 3.021-7.811 0-5.315-3.463-9.596-9.020-9.596s-9.021 4.281-9.021 9.596c0 2.85 1.357 5.578 3.022 7.811 2.405 3.225 5.412 5.403 5.412 5.403zM15.979 22.728c-0.932-0.754-2.806-2.391-4.396-4.523-1.415-1.897-2.625-4.193-2.625-6.615 0-4.174 2.657-7.596 7.021-7.596s7.020 3.422 7.020 7.596c0 2.422-1.209 4.718-2.624 6.615-1.59 2.132-3.464 3.769-4.396 4.523v0z"></path>
<path fill="#00a3a4" style="fill: var(--color1, #00a3a4)" d="M22.502 23.412c0.803 0.46 1.382 0.955 1.382 1.582 0 0.591-0.525 1.064-1.254 1.507-1.518 0.921-3.973 1.493-6.734 1.493s-5.216-0.572-6.733-1.493c-0.73-0.443-1.254-0.916-1.254-1.507 0-0.266 0.128-0.512 0.325-0.747 0.288-0.347 0.713-0.656 1.235-0.934 0.487-0.259 0.673-0.865 0.413-1.352s-0.865-0.673-1.352-0.413c-1.708 0.909-2.621 2.17-2.621 3.446 0 1.177 0.762 2.334 2.216 3.217 1.754 1.065 4.58 1.783 7.771 1.783s6.017-0.718 7.771-1.783c1.454-0.883 2.217-2.040 2.217-3.217 0-1.22-0.826-2.422-2.387-3.317-0.479-0.274-1.091-0.109-1.365 0.37-0.275 0.479-0.109 1.091 0.37 1.365z"></path>
<path fill="#00a3a4" style="fill: var(--color1, #00a3a4)" d="M14.999 9.994h-2c-0.551 0-1 0.448-1 1s0.449 1 1 1h2l-0.001 2c0 0.552 0.448 1 1 1s1-0.448 1-1l0.001-2h2c0.552 0 1-0.448 1-1s-0.448-1-1-1h-2v-2c0.001-0.551-0.447-1-0.999-1s-1 0.448-1.001 1v2z"></path>
</symbol>
</defs>
</svg>
