<svg aria-hidden="true" style="position: absolute; width: 0; height: 0; overflow: hidden;" version="1.1"
    xmlns="http://www.w3.org/2000/svg" xmlns:xlink="http://www.w3.org/1999/xlink">
    <defs>
        <symbol id="icon-accessibility" viewBox="0 0 32 32">
            <path fill="#fff" style="fill: var(--color1, #fff)"
                d="M16 0c8.837 0 16 7.163 16 16s-7.163 16-16 16c-8.837 0-16-7.163-16-16s7.163-16 16-16z"></path>
            <path fill="#00a3a4" style="fill: var(--color2, #00a3a4); stroke: var(--color2, #fff)" stroke="#fff"
                stroke-linejoin="miter" stroke-linecap="butt" stroke-miterlimit="4" stroke-width="0.4"
                d="M9.473 13.479c-2.472 1.415-4.111 4.036-4.114 7.039v0c-0 0.006-0 0.014-0 0.022 0 2.223 0.904 4.236 2.365 5.689l0 0c1.454 1.461 3.466 2.365 5.689 2.365 0.008 0 0.016 0 0.024-0h-0.001c3.751 0 6.981-2.544 7.854-6.187l-1.382-0.331c-0.718 2.945-3.334 5.098-6.452 5.098-0.007 0-0.014 0-0.021-0h0.001c-0.005 0-0.012 0-0.018 0-1.832 0-3.491-0.745-4.688-1.949l-0-0c-1.204-1.198-1.949-2.856-1.949-4.688 0-0.006 0-0.013 0-0.019v0.001c0.003-2.476 1.354-4.635 3.359-5.784l0.033-0.017-0.698-1.238zM25.928 23.47l-1.482 0.593-3.986-7.453h-8.136l-0.267-2.455 6.282 0.003 0-1.421-6.436-0.002-0.586-5.403c0.168 0.045 0.36 0.070 0.559 0.070 0.093 0 0.184-0.006 0.274-0.016l-0.011 0.001c1.127-0.139 1.992-1.091 1.992-2.244 0-0.095-0.006-0.188-0.017-0.28l0.001 0.011c-0.139-1.128-1.091-1.992-2.245-1.992-1.248 0-2.261 1.012-2.261 2.261 0 0.095 0.006 0.188 0.017 0.279l-0.001-0.011c0.022 0.18 0.066 0.353 0.126 0.515l-0.016 0.002 1.245 11.471 0.069 0.634h8.56l4.185 7.822 2.663-1.065-0.528-1.319z">
            </path>
        </symbol>
        <symbol id="icon-bear" viewBox="0 0 32 32">
            <path fill="#fff" style="fill: var(--color1, #fff)"
                d="M16 0c8.837 0 16 7.163 16 16s-7.163 16-16 16c-8.837 0-16-7.163-16-16s7.163-16 16-16z"></path>
            <path fill="#00a3a4" style="fill: var(--color2, #00a3a4)"
                d="M13.851 9.134c0.361 0 0.654-0.293 0.654-0.654s-0.293-0.654-0.654-0.654v0c-0.005-0-0.011-0-0.017-0-0.362 0-0.655 0.293-0.655 0.655s0.293 0.655 0.655 0.655c0.006 0 0.012-0 0.017-0l-0.001 0zM14.93 11.502c-0.444 0-0.685-0.451-0.687-0.456-0.068-0.128-0.2-0.214-0.353-0.214-0.067 0-0.131 0.017-0.186 0.046l0.002-0.001c-0.129 0.068-0.215 0.201-0.215 0.354 0 0.066 0.016 0.128 0.044 0.183l-0.001-0.002c0.018 0.035 0.458 0.888 1.395 0.888 0.367 0 0.673-0.078 0.918-0.227 0.234 0.161 0.537 0.249 0.908 0.249 0.858 0 1.263-0.893 1.281-0.931 0.021-0.047 0.034-0.102 0.034-0.16 0-0.161-0.096-0.3-0.233-0.362l-0.003-0.001c-0.048-0.023-0.105-0.036-0.165-0.036-0.161 0-0.3 0.096-0.361 0.234l-0.001 0.002c-0.001 0.003-0.214 0.457-0.552 0.457-0.298 0-0.43-0.076-0.486-0.124v-0.674c0.273-0.054 0.475-0.291 0.477-0.575v-0c0-0.332-0.269-0.614-0.586-0.614l-0.555 0.005c-0.335 0-0.608 0.275-0.608 0.609 0 0.288 0.203 0.533 0.475 0.595v0.627c-0.071 0.052-0.23 0.128-0.543 0.128zM11.044 3.002c2.020-0.098 2.407 1.396 2.407 1.396s0.937-0.573 2.4-0.573c1.462 0 2.398 0.573 2.398 0.573s0.388-1.495 2.408-1.396c1.177 0.057 2.137 1.040 2.137 2.218 0 1.103-0.726 2.585-1.91 2.622l-0.15 0.005c0.034 0.2 0.047 0.76 0.047 0.908 0 2.719-2.212 4.932-4.928 4.932s-4.93-2.213-4.93-4.932c0-0.148 0.012-0.707 0.047-0.907l-0.152-0.005c-1.183-0.037-1.908-1.519-1.908-2.622 0-1.178 0.96-2.161 2.136-2.218zM13.179 20.11v-1.953h1.727v-1.726h1.951v1.726h1.728v1.953h-1.728v1.726h-1.95v-1.726l-1.727-0zM6.897 19.871c-0.088-2.199 1.085-4.024 2.242-5.52l0.159-0.213c0.38-0.515 0.629-0.855 1.784-0.774 0.884 0.063 1.777 0.723 1.777 1.864v0.009c-0.003 0.687-0.452 1.303-0.927 1.953-0.577 0.791-1.231 1.685-1.231 2.903 0 0.348 0.076 0.619 0.151 0.876 0.072 0.255 0.14 0.494 0.14 0.802 0 1.049-0.887 1.902-1.975 1.902-1.308 0-2.021-1.28-2.122-3.804zM12.651 28.996c-1.446 0-2.622-1.175-2.622-2.62s1.177-2.62 2.622-2.62c1.446 0.001 2.619 1.174 2.62 2.62v0c-0.001 1.447-1.174 2.619-2.62 2.62h-0zM19.093 28.996c-1.445 0-2.622-1.175-2.622-2.62s1.177-2.62 2.622-2.62c1.446 0 2.622 1.175 2.622 2.62s-1.177 2.62-2.622 2.62zM22.68 23.675c-1.089 0-1.975-0.853-1.975-1.902 0-0.308 0.068-0.547 0.14-0.802 0.075-0.258 0.151-0.528 0.151-0.876 0-1.217-0.653-2.112-1.23-2.903-0.475-0.651-0.923-1.266-0.927-1.953v-0.009c0-1.142 0.892-1.801 1.777-1.864 1.152-0.080 1.404 0.26 1.783 0.775l0.16 0.213c1.158 1.496 2.328 3.32 2.242 5.519-0.101 2.523-0.815 3.804-2.122 3.804zM17.858 9.134c0 0 0.001 0 0.001 0 0.362 0 0.655-0.293 0.655-0.655s-0.292-0.654-0.653-0.655h-0c-0 0-0.001 0-0.001 0-0.362 0-0.655 0.293-0.655 0.655s0.292 0.654 0.653 0.655h0z">
            </path>
        </symbol>
        <symbol id="icon-creditCard" viewBox="0 0 32 32">
            <path fill="#fff" style="fill: var(--color1, #fff)"
                d="M16 0c8.837 0 16 7.163 16 16s-7.163 16-16 16c-8.837 0-16-7.163-16-16s7.163-16 16-16z"></path>
            <path fill="none" stroke="#00a3a4" style="stroke: var(--color2, #00a3a4)" stroke-linejoin="round"
                stroke-linecap="round" stroke-miterlimit="4" stroke-width="2.2222"
                d="M6 12.667h20M10.444 19.333h2.222M9.556 23.778h12.889c1.245 0 1.867 0 2.342-0.242 0.418-0.213 0.758-0.553 0.971-0.971 0.242-0.475 0.242-1.098 0.242-2.342v-8.444c0-1.245 0-1.867-0.242-2.342-0.213-0.418-0.553-0.758-0.971-0.971-0.475-0.242-1.098-0.242-2.342-0.242h-12.889c-1.245 0-1.867 0-2.342 0.242-0.418 0.213-0.758 0.553-0.971 0.971-0.242 0.475-0.242 1.098-0.242 2.342v8.444c0 1.245 0 1.867 0.242 2.342 0.213 0.418 0.553 0.758 0.971 0.971 0.475 0.242 1.098 0.242 2.342 0.242z">
            </path>
        </symbol>
        <symbol id="icon-parking" viewBox="0 0 32 32">
            <path fill="#fff" style="fill: var(--color1, #fff)"
                d="M16 0c8.837 0 16 7.163 16 16s-7.163 16-16 16c-8.837 0-16-7.163-16-16s7.163-16 16-16z"></path>
            <path fill="#00a3a4" style="fill: var(--color2, #00a3a4)"
                d="M22.535 17.307c-1.432 1.065-3.191 1.596-4.973 1.502h-4.131v6.956h-4.192v-19.531h8.593c1.698-0.091 3.371 0.444 4.702 1.502 1.25 1.224 1.884 2.945 1.728 4.687 0.191 1.805-0.444 3.599-1.728 4.883zM19.38 10.291c-0.638-0.467-1.419-0.696-2.208-0.646h-3.741v5.739h3.741c0.799 0.049 1.586-0.203 2.208-0.706 0.57-0.593 0.855-1.404 0.781-2.223 0.081-0.802-0.206-1.598-0.781-2.163z">
            </path>
        </symbol>
        <symbol id="icon-playground" viewBox="0 0 32 32">
            <path fill="#fff" style="fill: var(--color1, #fff)"
                d="M16 0c8.837 0 16 7.163 16 16s-7.163 16-16 16c-8.837 0-16-7.163-16-16s7.163-16 16-16z"></path>
            <path fill="none" stroke="#00a3a4" style="stroke: var(--color2, #00a3a4)" stroke-linejoin="round"
                stroke-linecap="round" stroke-miterlimit="4" stroke-width="0.8767"
                d="M7.781 9.836h6.849v16.438h-6.849v-16.438z"></path>
            <path fill="none" stroke="#00a3a4" style="stroke: var(--color2, #00a3a4)" stroke-linejoin="round"
                stroke-linecap="round" stroke-miterlimit="4" stroke-width="0.8767"
                d="M9.151 5.726h4.11c1.513 0 2.74 1.227 2.74 2.74v0 1.37h-9.589v-1.37c0-1.513 1.227-2.74 2.74-2.74v0z">
            </path>
            <path fill="none" stroke="#00a3a4" style="stroke: var(--color2, #00a3a4)" stroke-linejoin="round"
                stroke-linecap="round" stroke-miterlimit="4" stroke-width="0.8767" d="M7.781 18.055h6.849"></path>
            <path fill="none" stroke="#00a3a4" style="stroke: var(--color2, #00a3a4)" stroke-linejoin="round"
                stroke-linecap="round" stroke-miterlimit="4" stroke-width="0.8767"
                d="M9.836 11.89h2.74v4.11h-2.74v-4.11z"></path>
            <path fill="none" stroke="#00a3a4" style="stroke: var(--color2, #00a3a4)" stroke-linejoin="round"
                stroke-linecap="round" stroke-miterlimit="4" stroke-width="0.8767" d="M7.781 23.534h6.849"></path>
            <path fill="none" stroke="#00a3a4" style="stroke: var(--color2, #00a3a4)" stroke-linejoin="round"
                stroke-linecap="round" stroke-miterlimit="4" stroke-width="0.8767" d="M7.781 20.795h6.849"></path>
            <path fill="none" stroke="#00a3a4" style="stroke: var(--color2, #00a3a4)" stroke-linejoin="round"
                stroke-linecap="round" stroke-miterlimit="4" stroke-width="0.8767"
                d="M13.26 18.055h4.11l6.849 8.219h2.055"></path>
            <path fill="none" stroke="#00a3a4" style="stroke: var(--color2, #00a3a4)" stroke-linejoin="round"
                stroke-linecap="round" stroke-miterlimit="4" stroke-width="0.8767" d="M17.37 18.74v7.534"></path>
            <path fill="none" stroke="#00a3a4" style="stroke: var(--color2, #00a3a4)" stroke-linejoin="round"
                stroke-linecap="round" stroke-miterlimit="4" stroke-width="0.8767" d="M20.795 22.164v4.11"></path>
        </symbol>
    </defs>
</svg>