<svg aria-hidden="true" style="position: absolute; width: 0; height: 0; overflow: hidden;" version="1.1"
    xmlns="http://www.w3.org/2000/svg" xmlns:xlink="http://www.w3.org/1999/xlink">
    <defs>
        <symbol id="icon-location" viewBox="0 0 32 32">
            <path fill="#00a3a4" style="fill: var(--color1, #00a3a4)"
                d="M16.052 7.082c-1.091 0-2.117 0.425-2.888 1.196-1.592 1.592-1.592 4.182 0 5.774 0.772 0.771 1.798 1.196 2.889 1.196s2.116-0.425 2.887-1.196c1.592-1.592 1.592-4.182 0-5.774-0.771-0.771-1.797-1.196-2.888-1.196zM17.684 12.795c-0.435 0.436-1.015 0.676-1.63 0.676s-1.196-0.24-1.632-0.676c-0.899-0.899-0.899-2.362 0-3.26 0.436-0.436 1.015-0.676 1.631-0.676s1.196 0.24 1.631 0.676c0.898 0.899 0.898 2.362 0 3.26z">
            </path>
            <path fill="#00a3a4" style="fill: var(--color1, #00a3a4)"
                d="M22.364 9.699c-0.031-0.134-0.052-0.231-0.068-0.306-0.034-0.158-0.055-0.253-0.11-0.383-0.097-0.225-0.36-0.327-0.584-0.232-0.224 0.097-0.329 0.358-0.232 0.584 0.021 0.048 0.029 0.081 0.058 0.218 0.016 0.080 0.039 0.183 0.072 0.324 0.049 0.205 0.232 0.343 0.433 0.343 0.033 0 0.068-0.004 0.102-0.012 0.239-0.057 0.386-0.296 0.33-0.535z">
            </path>
            <path fill="#00a3a4" style="fill: var(--color1, #00a3a4)"
                d="M21.503 7.652c-1.060-1.672-2.792-2.784-4.751-3.051-0.245-0.032-0.467 0.137-0.501 0.38s0.137 0.467 0.38 0.5c1.699 0.231 3.2 1.196 4.12 2.647 0.084 0.133 0.229 0.206 0.376 0.206 0.082 0 0.163-0.022 0.238-0.069 0.206-0.132 0.268-0.406 0.137-0.614z">
            </path>
            <path fill="#00a3a4" style="fill: var(--color1, #00a3a4)"
                d="M16 1.45c-5.263 0-9.544 4.281-9.544 9.544 0 3.434 4.95 14.336 6.28 16.957 1.148 2.262 2.564 2.6 3.308 2.6 1.287 0 2.459-0.924 3.301-2.604 1.261-2.515 6.199-13.558 6.199-16.953 0-5.263-4.281-9.544-9.544-9.544zM17.756 27.15c-0.509 1.016-1.149 1.622-1.712 1.622-0.571 0-1.198-0.593-1.722-1.627-1.767-3.482-6.088-13.454-6.088-16.152 0-4.282 3.484-7.766 7.766-7.766s7.766 3.484 7.766 7.766c0 2.739-4.465 13.076-6.011 16.156z">
            </path>
        </symbol>
        <symbol id="icon-medecine" viewBox="0 0 32 32">
            <path fill="#00a3a4" style="fill: var(--color1, #00a3a4)"
                d="M15.392 24.804c0.35 0.254 0.824 0.254 1.174 0 0 0 3.007-2.178 5.412-5.403 1.665-2.233 3.021-4.961 3.021-7.811 0-5.315-3.463-9.596-9.020-9.596s-9.021 4.281-9.021 9.596c0 2.85 1.357 5.578 3.022 7.811 2.405 3.225 5.412 5.403 5.412 5.403zM15.979 22.728c-0.932-0.754-2.806-2.391-4.396-4.523-1.415-1.897-2.625-4.193-2.625-6.615 0-4.174 2.657-7.596 7.021-7.596s7.020 3.422 7.020 7.596c0 2.422-1.209 4.718-2.624 6.615-1.59 2.132-3.464 3.769-4.396 4.523v0z">
            </path>
            <path fill="#00a3a4" style="fill: var(--color1, #00a3a4)"
                d="M22.502 23.412c0.803 0.46 1.382 0.955 1.382 1.582 0 0.591-0.525 1.064-1.254 1.507-1.518 0.921-3.973 1.493-6.734 1.493s-5.216-0.572-6.733-1.493c-0.73-0.443-1.254-0.916-1.254-1.507 0-0.266 0.128-0.512 0.325-0.747 0.288-0.347 0.713-0.656 1.235-0.934 0.487-0.259 0.673-0.865 0.413-1.352s-0.865-0.673-1.352-0.413c-1.708 0.909-2.621 2.17-2.621 3.446 0 1.177 0.762 2.334 2.216 3.217 1.754 1.065 4.58 1.783 7.771 1.783s6.017-0.718 7.771-1.783c1.454-0.883 2.217-2.040 2.217-3.217 0-1.22-0.826-2.422-2.387-3.317-0.479-0.274-1.091-0.109-1.365 0.37-0.275 0.479-0.109 1.091 0.37 1.365z">
            </path>
            <path fill="#00a3a4" style="fill: var(--color1, #00a3a4)"
                d="M14.999 9.994h-2c-0.551 0-1 0.448-1 1s0.449 1 1 1h2l-0.001 2c0 0.552 0.448 1 1 1s1-0.448 1-1l0.001-2h2c0.552 0 1-0.448 1-1s-0.448-1-1-1h-2v-2c0.001-0.551-0.447-1-0.999-1s-1 0.448-1.001 1v2z">
            </path>
        </symbol>
    </defs>
</svg>